<svg xmlns="http://www.w3.org/2000/svg" enable-background="new 0 0 32 32" viewBox="0 0 32 32" id="date">
  <path d="M27 4h-1V3c0-.6-.4-1-1-1s-1 .4-1 1v1h-4V3c0-.6-.4-1-1-1s-1 .4-1 1v1h-4V3c0-.6-.4-1-1-1s-1 .4-1 1v1H8V3c0-.6-.4-1-1-1S6 2.4 6 3v1H5C3.3 4 2 5.3 2 7v3h28V7C30 5.3 28.7 4 27 4zM22 8H10C9.4 8 9 7.6 9 7s.4-1 1-1h12c.6 0 1 .4 1 1S22.6 8 22 8zM21 17h-1c-.6 0-1 .4-1 1v6c0 .6.4 1 1 1h1c.6 0 1-.4 1-1v-6C22 17.4 21.6 17 21 17z"></path>
  <path d="M2,12v15c0,1.7,1.3,3,3,3h22c1.7,0,3-1.3,3-3V12H2z M15,19c0,0.8-0.3,1.5-0.8,2c0.5,0.5,0.8,1.2,0.8,2v1c0,1.7-1.3,3-3,3h-1
	c-1.7,0-3-1.3-3-3c0-0.6,0.4-1,1-1s1,0.4,1,1c0,0.6,0.4,1,1,1h1c0.6,0,1-0.4,1-1v-1c0-0.6-0.4-1-1-1c-0.2,0-0.4-0.1-0.5-0.2
	c-0.1,0-0.1-0.1-0.2-0.1c0,0-0.1-0.1-0.1-0.2C11.1,21.4,11,21.2,11,21c0-0.2,0.1-0.4,0.2-0.5c0-0.1,0.1-0.1,0.1-0.2
	c0,0,0.1-0.1,0.1-0.1c0.2-0.1,0.4-0.2,0.6-0.2c0.6,0,1-0.4,1-1v-1c0-0.6-0.4-1-1-1h-1c-0.6,0-1,0.4-1,1c0,0.6-0.4,1-1,1s-1-0.4-1-1
	c0-1.7,1.3-3,3-3h1c1.7,0,3,1.3,3,3V19z M24,24c0,1.7-1.3,3-3,3h-1c-1.7,0-3-1.3-3-3v-6c0-1.7,1.3-3,3-3h1c1.7,0,3,1.3,3,3V24z"></path>
</svg>
